<svg width="174" height="43" viewBox="0 0 174 43" fill="none" xmlns="http://www.w3.org/2000/svg">
<path d="M9.996 30H0.896V27.592L3.332 26.472V13.536L0.896 12.416V10.008H9.996V12.416L7.56 13.536V26.472L9.996 27.592V30ZM21.7468 14.432C23.3895 14.432 24.7055 14.88 25.6948 15.776C26.6841 16.6533 27.1788 18.072 27.1788 20.032V30H23.0068V21.068C23.0068 19.9667 22.8108 19.1453 22.4188 18.604C22.0268 18.044 21.4015 17.764 20.5428 17.764C19.2735 17.764 18.4055 18.2027 17.9388 19.08C17.4721 19.9387 17.2388 21.18 17.2388 22.804V30H13.0668V14.712H16.2588L16.8188 16.672H17.0428C17.3788 16.1493 17.7895 15.7293 18.2748 15.412C18.7601 15.076 19.3015 14.8333 19.8988 14.684C20.4961 14.516 21.1121 14.432 21.7468 14.432ZM37.9092 26.948C38.3758 26.948 38.8238 26.9013 39.2532 26.808C39.6825 26.7147 40.1118 26.6027 40.5412 26.472V29.58C40.0932 29.7667 39.5332 29.9253 38.8612 30.056C38.2078 30.2053 37.4892 30.28 36.7052 30.28C35.7905 30.28 34.9692 30.1307 34.2412 29.832C33.5318 29.5333 32.9625 29.02 32.5332 28.292C32.1225 27.5453 31.9172 26.5187 31.9172 25.212V17.848H29.9292V16.084L32.2252 14.684L33.4292 11.464H36.0892V14.712H40.3732V17.848H36.0892V25.212C36.0892 25.7907 36.2572 26.2293 36.5932 26.528C36.9292 26.808 37.3678 26.948 37.9092 26.948ZM49.8818 14.404C51.9351 14.404 53.5031 14.852 54.5858 15.748C55.6871 16.6253 56.2378 17.9787 56.2378 19.808V30H53.3258L52.5138 27.928H52.4018C51.9724 28.4693 51.5244 28.9173 51.0578 29.272C50.6098 29.6267 50.0871 29.8787 49.4898 30.028C48.9111 30.196 48.1924 30.28 47.3338 30.28C46.4378 30.28 45.6258 30.112 44.8978 29.776C44.1884 29.4213 43.6284 28.8893 43.2178 28.18C42.8071 27.452 42.6018 26.5373 42.6018 25.436C42.6018 23.812 43.1711 22.6173 44.3098 21.852C45.4484 21.068 47.1564 20.6387 49.4338 20.564L52.0938 20.48V19.808C52.0938 19.0053 51.8791 18.4173 51.4498 18.044C51.0391 17.6707 50.4604 17.484 49.7138 17.484C48.9671 17.484 48.2391 17.596 47.5298 17.82C46.8204 18.0253 46.1111 18.2867 45.4018 18.604L44.0298 15.776C44.8511 15.3467 45.7564 15.0107 46.7458 14.768C47.7538 14.5253 48.7991 14.404 49.8818 14.404ZM50.4698 22.972C49.1258 23.0093 48.1924 23.252 47.6698 23.7C47.1471 24.148 46.8858 24.736 46.8858 25.464C46.8858 26.0987 47.0724 26.556 47.4458 26.836C47.8191 27.0973 48.3044 27.228 48.9018 27.228C49.7978 27.228 50.5538 26.9667 51.1698 26.444C51.7858 25.9027 52.0938 25.1467 52.0938 24.176V22.916L50.4698 22.972ZM69.1882 14.432C70.8309 14.432 72.1469 14.88 73.1362 15.776C74.1256 16.6533 74.6202 18.072 74.6202 20.032V30H70.4482V21.068C70.4482 19.9667 70.2522 19.1453 69.8602 18.604C69.4682 18.044 68.8429 17.764 67.9842 17.764C66.7149 17.764 65.8469 18.2027 65.3802 19.08C64.9136 19.9387 64.6802 21.18 64.6802 22.804V30H60.5082V14.712H63.7002L64.2602 16.672H64.4842C64.8202 16.1493 65.2309 15.7293 65.7162 15.412C66.2016 15.076 66.7429 14.8333 67.3402 14.684C67.9376 14.516 68.5536 14.432 69.1882 14.432ZM83.0826 14.712V30H78.9106V14.712H83.0826ZM81.0106 8.72C81.6266 8.72 82.1586 8.86933 82.6066 9.168C83.0546 9.448 83.2786 9.98 83.2786 10.764C83.2786 11.5293 83.0546 12.0613 82.6066 12.36C82.1586 12.6587 81.6266 12.808 81.0106 12.808C80.3759 12.808 79.8346 12.6587 79.3866 12.36C78.9572 12.0613 78.7426 11.5293 78.7426 10.764C78.7426 9.98 78.9572 9.448 79.3866 9.168C79.8346 8.86933 80.3759 8.72 81.0106 8.72ZM93.7138 14.404C95.7671 14.404 97.3351 14.852 98.4178 15.748C99.5191 16.6253 100.07 17.9787 100.07 19.808V30H97.1578L96.3458 27.928H96.2338C95.8045 28.4693 95.3565 28.9173 94.8898 29.272C94.4418 29.6267 93.9191 29.8787 93.3218 30.028C92.7431 30.196 92.0245 30.28 91.1658 30.28C90.2698 30.28 89.4578 30.112 88.7298 29.776C88.0205 29.4213 87.4605 28.8893 87.0498 28.18C86.6391 27.452 86.4338 26.5373 86.4338 25.436C86.4338 23.812 87.0031 22.6173 88.1418 21.852C89.2805 21.068 90.9885 20.6387 93.2658 20.564L95.9258 20.48V19.808C95.9258 19.0053 95.7111 18.4173 95.2818 18.044C94.8711 17.6707 94.2925 17.484 93.5458 17.484C92.7991 17.484 92.0711 17.596 91.3618 17.82C90.6525 18.0253 89.9431 18.2867 89.2338 18.604L87.8618 15.776C88.6831 15.3467 89.5885 15.0107 90.5778 14.768C91.5858 14.5253 92.6311 14.404 93.7138 14.404ZM94.3018 22.972C92.9578 23.0093 92.0245 23.252 91.5018 23.7C90.9791 24.148 90.7178 24.736 90.7178 25.464C90.7178 26.0987 90.9045 26.556 91.2778 26.836C91.6511 27.0973 92.1365 27.228 92.7338 27.228C93.6298 27.228 94.3858 26.9667 95.0018 26.444C95.6178 25.9027 95.9258 25.1467 95.9258 24.176V22.916L94.3018 22.972ZM127.63 10.008L120.826 30H116.206L109.43 10.008H113.714L117.466 21.908C117.54 22.1133 117.643 22.496 117.774 23.056C117.923 23.5973 118.072 24.176 118.222 24.792C118.371 25.3893 118.474 25.8933 118.53 26.304C118.586 25.8933 118.679 25.3893 118.81 24.792C118.959 24.176 119.108 23.5973 119.258 23.056C119.407 22.496 119.51 22.1133 119.566 21.908L123.346 10.008H127.63ZM143.166 22.328C143.166 23.5973 142.988 24.7267 142.634 25.716C142.298 26.7053 141.803 27.5453 141.15 28.236C140.515 28.908 139.74 29.4213 138.826 29.776C137.911 30.112 136.875 30.28 135.718 30.28C134.654 30.28 133.664 30.112 132.75 29.776C131.854 29.4213 131.079 28.908 130.426 28.236C129.772 27.5453 129.259 26.7053 128.886 25.716C128.531 24.7267 128.354 23.5973 128.354 22.328C128.354 20.6293 128.652 19.2013 129.25 18.044C129.847 16.868 130.706 15.972 131.826 15.356C132.946 14.74 134.271 14.432 135.802 14.432C137.239 14.432 138.508 14.74 139.61 15.356C140.711 15.972 141.579 16.868 142.214 18.044C142.848 19.2013 143.166 20.6293 143.166 22.328ZM132.61 22.328C132.61 23.336 132.712 24.1853 132.918 24.876C133.142 25.548 133.487 26.0613 133.954 26.416C134.42 26.752 135.027 26.92 135.774 26.92C136.52 26.92 137.118 26.752 137.566 26.416C138.032 26.0613 138.368 25.548 138.574 24.876C138.798 24.1853 138.91 23.336 138.91 22.328C138.91 21.32 138.798 20.48 138.574 19.808C138.368 19.136 138.032 18.632 137.566 18.296C137.099 17.96 136.492 17.792 135.746 17.792C134.644 17.792 133.842 18.1747 133.338 18.94C132.852 19.6867 132.61 20.816 132.61 22.328ZM153.054 26.948C153.52 26.948 153.968 26.9013 154.398 26.808C154.827 26.7147 155.256 26.6027 155.686 26.472V29.58C155.238 29.7667 154.678 29.9253 154.006 30.056C153.352 30.2053 152.634 30.28 151.85 30.28C150.935 30.28 150.114 30.1307 149.386 29.832C148.676 29.5333 148.107 29.02 147.678 28.292C147.267 27.5453 147.062 26.5187 147.062 25.212V17.848H145.074V16.084L147.37 14.684L148.574 11.464H151.234V14.712H155.518V17.848H151.234V25.212C151.234 25.7907 151.402 26.2293 151.738 26.528C152.074 26.808 152.512 26.948 153.054 26.948ZM165.054 14.432C166.473 14.432 167.686 14.7027 168.694 15.244C169.721 15.7853 170.514 16.5693 171.074 17.596C171.634 18.6227 171.914 19.8827 171.914 21.376V23.392H162.058C162.096 24.568 162.441 25.492 163.094 26.164C163.766 26.836 164.69 27.172 165.866 27.172C166.856 27.172 167.752 27.0787 168.554 26.892C169.357 26.6867 170.188 26.3787 171.046 25.968V29.188C170.3 29.5613 169.506 29.832 168.666 30C167.845 30.1867 166.846 30.28 165.67 30.28C164.14 30.28 162.786 30 161.61 29.44C160.434 28.8613 159.51 27.9933 158.838 26.836C158.166 25.6787 157.83 24.2227 157.83 22.468C157.83 20.676 158.129 19.192 158.726 18.016C159.342 16.8213 160.192 15.9253 161.274 15.328C162.357 14.7307 163.617 14.432 165.054 14.432ZM165.082 17.4C164.28 17.4 163.608 17.6613 163.066 18.184C162.544 18.7067 162.236 19.5187 162.142 20.62H167.994C167.994 20.004 167.882 19.4533 167.658 18.968C167.453 18.4827 167.136 18.1 166.706 17.82C166.277 17.54 165.736 17.4 165.082 17.4Z" fill="#262626"/>
<line x1="109" y1="34.5" x2="173" y2="34.5" stroke="#821923" stroke-width="3"/>
</svg>
